<!-- Primeiro plano do ícone adaptativo do Android: a MESMA arte do icon.svg, sem o ladrilho (o
     #1e1b4b vem de ic_launcher_background), na grade 108, dentro do círculo seguro de raio 33
     centrado em 54,54: o canto mais longe do teclado fica a ~32. -->
<svg xmlns="http://www.w3.org/2000/svg" viewBox="0 0 108 108" width="108" height="108">
  <g transform="translate(54 54) scale(1.22) translate(-31.9 -31)">
    <!-- cinco teclas brancas, de Dó a Sol -->
    <g fill="#e0e7ff">
      <rect x="12" y="16" width="7.2" height="32" rx="1.6"/>
      <rect x="20.15" y="16" width="7.2" height="32" rx="1.6"/>
      <rect x="28.3" y="16" width="7.2" height="32" rx="1.6"/>
      <rect x="36.45" y="16" width="7.2" height="32" rx="1.6"/>
      <rect x="44.6" y="16" width="7.2" height="32" rx="1.6"/>
    </g>
    <!-- o acorde: Dó, Mi e Sol acesos em lavanda (o voicing que o app ensina a ler) -->
    <g fill="#a5b4fc">
      <rect x="12" y="16" width="7.2" height="32" rx="1.6"/>
      <rect x="28.3" y="16" width="7.2" height="32" rx="1.6"/>
      <rect x="44.6" y="16" width="7.2" height="32" rx="1.6"/>
    </g>
    <!-- as pretas (Dó♯, Ré♯, Fá♯) na cor do fundo, por cima -->
    <g fill="#1e1b4b">
      <rect x="17.2" y="14" width="5" height="20" rx="1.2"/>
      <rect x="25.35" y="14" width="5" height="20" rx="1.2"/>
      <rect x="41.65" y="14" width="5" height="20" rx="1.2"/>
    </g>
  </g>
</svg>
